<?xml version="1.0" standalone="no"?>
<!DOCTYPE svg PUBLIC "-//W3C//DTD SVG 1.1//EN" "http://www.w3.org/Graphics/SVG/1.1/DTD/svg11.dtd" >
<svg>
<metadata>
Created by FontForge 20120731 at Sun Jun 30 12:41:12 2019
 By www
thmbnl. graphic design
</metadata>
<defs>
<font id="Oduda-Bold" horiz-adv-x="488" >
  <font-face 
    font-family="Oduda"
    font-weight="400"
    font-stretch="normal"
    units-per-em="1000"
    panose-1="0 0 5 0 0 0 0 0 0 0"
    ascent="800"
    descent="-200"
    x-height="494"
    cap-height="700"
    bbox="-15.0455 -200 783 705.878"
    underline-thickness="50"
    underline-position="-100"
    unicode-range="U+0020-007A"
  />
<missing-glyph horiz-adv-x="500" 
d="M0 0v700h500v-700h-500zM250 395l170 255h-340zM280 350l170 -255v510zM80 50h340l-170 255zM50 605v-510l170 255z" />
    <glyph glyph-name=".notdef" horiz-adv-x="500" 
d="M0 0v700h500v-700h-500zM250 395l170 255h-340zM280 350l170 -255v510zM80 50h340l-170 255zM50 605v-510l170 255z" />
    <glyph glyph-name=".null" horiz-adv-x="0" 
 />
    <glyph glyph-name="nonmarkingreturn" horiz-adv-x="333" 
 />
    <glyph glyph-name="space" unicode=" " horiz-adv-x="290" 
 />
    <glyph glyph-name="exclam" unicode="!" horiz-adv-x="205" 
d="M103 174q32 0 54.5 22t22.5 54v371q0 33 -22.5 56t-54.5 23t-55 -23t-23 -56v-371q0 -32 23 -54t55 -22zM174 70q0 31 -21 52t-50 21q-30 0 -51 -21t-21 -52q0 -29 21 -49.5t51 -20.5q29 0 50 20.5t21 49.5z" />
    <glyph glyph-name="quotedbl" unicode="&#x22;" horiz-adv-x="417" 
d="M144 700q28 -7 42.5 -30.5t7.5 -51.5l-25 -106q-6 -23 -24.5 -37.5t-41.5 -14.5q-4 0 -16 2q-27 7 -41.5 30.5t-8.5 50.5l26 107q7 27 30.5 41.5t50.5 8.5zM330 700q28 -7 42.5 -30.5t7.5 -51.5l-25 -106q-6 -23 -24.5 -37.5t-41.5 -14.5q-6 0 -16 2q-27 7 -41.5 30.5
t-8.5 50.5l26 107q7 27 30.5 41.5t50.5 8.5z" />
    <glyph glyph-name="numbersign" unicode="#" horiz-adv-x="656" 
d="M506 354l-10 -53h17q29 0 49.5 -20t20.5 -48t-20.5 -48t-49.5 -20h-45l-21 -109q-4 -24 -23.5 -40t-43.5 -16q-8 0 -13 1q-28 5 -44 28.5t-10 51.5l16 84h-60l-21 -109q-5 -25 -24 -40.5t-44 -15.5q-9 0 -12 1q-28 5 -43.5 28.5t-9.5 51.5l15 84h-26q-29 0 -49 19.5
t-20 48.5t20 48.5t49 19.5h52l10 53h-22q-28 0 -48.5 20.5t-20.5 48.5q0 29 20 49t49 20h48l21 105q5 27 28.5 43t51.5 11q29 -6 44.5 -29.5t9.5 -51.5l-14 -78h58l21 105q5 27 29 43t52 11q28 -6 43.5 -29.5t11.5 -51.5l-16 -78h22q28 0 47.5 -20t19.5 -49
q0 -28 -19.5 -48.5t-47.5 -20.5h-48zM366 354h-60l-10 -53h59z" />
    <glyph glyph-name="percent" unicode="%" horiz-adv-x="813" 
d="M587 695q25 -13 33 -39t-5 -50l-300 -571q-18 -35 -59 -35q-16 0 -30 7q-24 13 -32.5 39t4.5 50l300 572q13 24 39 32t50 -5zM371 537q0 -67 -47.5 -115t-115.5 -48q-67 0 -115 48t-48 115t48 115t115 48q68 0 115.5 -48t47.5 -115zM153 537q0 -23 16.5 -39t38.5 -16
q23 0 39 16t16 39t-16 39t-39 16q-22 0 -38.5 -16t-16.5 -39zM605 328q67 0 115 -48t48 -115t-48 -115t-115 -48t-115 48t-48 115t48 115t115 48zM605 110q23 0 39 16t16 39t-16 39t-39 16t-39 -16t-16 -39t16 -39t39 -16z" />
    <glyph glyph-name="ampersand" unicode="&#x26;" horiz-adv-x="582" 
d="M487 159l45 -53q17 -21 14.5 -47.5t-22.5 -44.5q-18 -15 -42 -15q-31 0 -51 23l-21 26q-2 -2 -7 -5t-7 -5q-57 -39 -126 -39q-48 0 -88 18q-36 15 -72 47q-32 32 -48 73q-17 43 -17 87q0 65 33 119q17 28 41 49q-41 50 -41 117q0 78 56 136q58 55 136 55q77 0 135 -55
q55 -58 55 -136q0 -77 -55 -135q-31 -29 -65 -42l55 -64l28 57q11 25 36.5 33.5t50.5 -2.5q25 -12 33.5 -37.5t-2.5 -49.5zM270 569q-25 0 -43 -17.5t-18 -42.5t18 -42.5t43 -17.5t42 17.5t17 42.5t-17 42.5t-42 17.5zM270 130q32 0 55 18l-122 144q-28 -30 -28 -68
q0 -39 27.5 -66.5t67.5 -27.5z" />
    <glyph glyph-name="quotesingle" unicode="'" horiz-adv-x="231" 
d="M103 460q23 0 41.5 14.5t24.5 37.5l25 107q7 27 -7.5 50.5t-42.5 30.5q-27 7 -50.5 -8t-30.5 -42l-26 -106q-6 -28 8.5 -51.5t41.5 -30.5q12 -2 16 -2z" />
    <glyph glyph-name="parenleft" unicode="(" horiz-adv-x="286" 
d="M195 -1q19 0 35 10q23 15 29 41.5t-9 49.5q-73 114 -73 250q0 138 74 251q14 23 8.5 49.5t-28.5 41.5t-50 9t-41 -29q-95 -147 -95 -322q0 -173 94 -321q19 -30 56 -30z" />
    <glyph glyph-name="parenright" unicode=")" horiz-adv-x="285" 
d="M91 -1q37 0 56 30q93 146 93 321t-94 321q-14 23 -41 29t-50 -9t-28.5 -41.5t9.5 -49.5q73 -114 73 -250q0 -137 -73 -250q-14 -23 -8.5 -49.5t28.5 -41.5q16 -10 35 -10z" />
    <glyph glyph-name="comma" unicode="," horiz-adv-x="231" 
d="M103 -108q23 0 41.5 14.5t24.5 37.5l25 106q7 27 -7.5 51t-42.5 31q-27 6 -50.5 -8.5t-30.5 -41.5l-26 -107q-6 -27 8.5 -51t41.5 -30q10 -2 16 -2z" />
    <glyph glyph-name="hyphen" unicode="-" horiz-adv-x="454" 
d="M132 232h190q32 0 54.5 22.5t22.5 54.5t-22.5 54t-54.5 22h-190q-32 0 -54.5 -22t-22.5 -54t22.5 -54.5t54.5 -22.5z" />
    <glyph glyph-name="period" unicode="." horiz-adv-x="195" 
d="M170 72q0 29 -21 50t-51 21t-51.5 -21t-21.5 -50q0 -30 21.5 -51t51.5 -21t51 21t21 51z" />
    <glyph glyph-name="slash" unicode="/" horiz-adv-x="442" 
d="M110 0q20 0 37.5 11.5t24.5 30.5l221 572q10 25 -1 50t-37 35q-25 10 -50 -1t-35 -37l-221 -572q-10 -26 1 -50.5t36 -34.5q11 -4 24 -4z" />
    <glyph glyph-name="zero" unicode="0" horiz-adv-x="572" 
d="M496 559q19 -42 19 -90v-235q0 -49 -19 -91q-15 -37 -48 -73q-34 -33 -74 -49q-40 -18 -90 -18q-51 0 -90 18q-41 16 -74 49q-32 32 -50 73q-17 41 -17 91v235q0 49 17 90q18 42 50 74q33 33 74 49q42 18 90 18q46 0 90 -18q40 -16 74 -49q33 -37 48 -74zM367 234v235
q0 34 -24.5 58.5t-58.5 24.5q-35 0 -59 -24t-24 -59v-235q0 -35 24 -59t59 -24q34 0 58.5 24.5t24.5 58.5z" />
    <glyph glyph-name="one" unicode="1" horiz-adv-x="371" 
d="M250 700q28 -4 47 -25t19 -49v-550q0 -31 -22 -53t-53 -22t-52.5 22t-21.5 53v493h-57q-27 0 -46 19.5t-19 46.5t19 46.5t46 19.5h131q1 0 4 -0.5t5 -0.5z" />
    <glyph glyph-name="two" unicode="2" horiz-adv-x="518" 
d="M250 133h154q28 0 47.5 -19.5t19.5 -46.5t-19.5 -46.5t-47.5 -19.5h-294h-1q-20 0 -42 15q-21 18 -23.5 45.5t15.5 48.5l252 303l2 2q26 27 26 65t-27 64q-28 27 -66 26.5t-64 -27.5l-22 -22q-19 -19 -46.5 -19.5t-47.5 18.5q-19 20 -19 46.5t19 46.5l22 23q32 32 73 49
q38 17 85 17q40 1 83 -15q40 -16 75 -49q30 -29 50 -73q17 -42 17 -84q0 -45 -16 -84q-16 -40 -47 -72z" />
    <glyph glyph-name="three" unicode="3" horiz-adv-x="515" 
d="M451 317q19 -41 19 -88t-19 -89q-17 -40 -48 -72q-32 -32 -72 -50q-43 -18 -89 -18q-62 0 -115 31q-52 31 -81 81q-16 27 -9 56t33 45q27 16 56.5 8.5t45.5 -34.5q25 -38 70 -38q33 0 57 23.5t24 56.5t-24 56.5t-57 23.5q-32 0 -53.5 21t-21.5 52v1q0 31 22 52.5t53 21.5
q20 0 34 14t14 34q0 19 -14 33t-34 14q-23 0 -37 -17q-20 -23 -50.5 -25.5t-53.5 16.5q-24 19 -27 49.5t17 54.5q60 70 151 70q81 0 139 -58q56 -56 56 -137q0 -61 -35 -114q1 -1 1 -2q31 -31 48 -72z" />
    <glyph glyph-name="four" unicode="4" horiz-adv-x="589" 
d="M478 627v-366q28 0 47 -19.5t19 -46.5t-19 -46.5t-47 -19.5v-55q0 -31 -22 -52.5t-53 -21.5t-52.5 21.5t-21.5 52.5v55h-225h-2h-1q-18 0 -37 11q-23 16 -28 42.5t11 49.5l295 438q10 13 22 20q17 11 39 11q31 0 53 -21.5t22 -52.5zM329 261v153l-104 -153h104z" />
    <glyph glyph-name="five" unicode="5" horiz-adv-x="515" 
d="M451 342q19 -44 19 -96q0 -51 -19 -96q-20 -45 -53 -78q-35 -35 -78 -53q-45 -19 -96 -19q-43 0 -81 13q-39 14 -69 37q-25 19 -29 49.5t15 54.5t49 28.5t55 -14.5q26 -21 60 -21q40 0 69 29t29 70t-28.5 70t-69.5 29q-33 0 -61 -20q-24 -19 -54 -15t-49 28
q-17 21 -15 47v12l36 239q4 35 37 54q18 10 37 10h208q31 0 52.5 -21.5t21.5 -52.5t-21.5 -52.5t-52.5 -21.5h-145l-9 -60q5 1 15 1q48 0 96 -20q42 -17 78 -52q33 -33 53 -79z" />
    <glyph glyph-name="six" unicode="6" horiz-adv-x="572" 
d="M381 590l-59 -99q91 -11 153 -81t62 -164q0 -102 -72 -174t-174 -72t-174 72t-72 174q0 59 24 107q1 2 5 11l179 302q16 26 45.5 34t56.5 -8q26 -16 33.5 -46t-7.5 -56zM360 177q29 27 29 69t-29 69q-27 29 -69 29t-69 -29q-29 -27 -29 -69t29 -69q27 -29 69 -29t69 29z
" />
    <glyph glyph-name="seven" unicode="7" horiz-adv-x="501" 
d="M410 697l9 -3q29 -11 41 -39.5t1 -56.5l-213 -551q-8 -21 -27 -34t-42 -13q-16 0 -27 5q-29 11 -41 39.5t-1 56.5l174 450h-174q-32 0 -53.5 21.5t-21.5 53.5q0 31 22 52.5t53 21.5h279q11 0 21 -3z" />
    <glyph glyph-name="eight" unicode="8" horiz-adv-x="539" 
d="M417 392q77 -67 77 -168q0 -93 -65.5 -158.5t-158.5 -65.5q-94 0 -159.5 65t-65.5 159q0 100 76 168q-42 52 -42 119q0 78 56 133.5t135 55.5q78 0 133.5 -55.5t55.5 -133.5q0 -67 -42 -119zM228 553q-18 -21 -18 -42q0 -27 18 -42q15 -17 42 -17q24 0 41 17q17 15 17 42
q0 23 -17 42q-19 16 -41 16q-26 0 -42 -16zM335 157q28 28 28 67q0 38 -28 66q-27 27 -65 27t-67 -27q-27 -29 -27 -66q0 -38 27 -67q29 -27 67 -27t65 27z" />
    <glyph glyph-name="nine" unicode="9" horiz-adv-x="562" 
d="M527 454q0 -56 -25 -106q0 -2 -5 -11l-178 -301q-22 -36 -64 -36q-21 0 -37 10q-27 16 -34.5 45.5t8.5 55.5l58 99q-91 12 -153 81.5t-62 162.5q0 102 72 174t174 72t174 -72t72 -174zM183 454q0 -40 29 -69q28 -28 69 -28t69 28q29 31 29 69q0 40 -29 69q-27 29 -69 29
t-69 -29q-29 -27 -29 -69z" />
    <glyph glyph-name="colon" unicode=":" horiz-adv-x="196" 
d="M171 428q0 30 -21.5 51t-52.5 21q-29 0 -50.5 -21t-21.5 -51t21.5 -51t50.5 -21q31 0 52.5 21t21.5 51zM171 73q0 30 -21.5 51.5t-52.5 21.5q-29 0 -50.5 -21.5t-21.5 -51.5t21.5 -51.5t50.5 -21.5q31 0 52.5 21.5t21.5 51.5z" />
    <glyph glyph-name="question" unicode="?" horiz-adv-x="477" 
d="M433 564q18 -42 18 -85q0 -47 -18 -87q-13 -35 -47 -71q-32 -31 -69 -47q-2 -1 -9 -5v-19q0 -32 -23 -54.5t-55 -22.5t-54.5 22.5t-22.5 54.5v79v1v3q0 32 22.5 55t54.5 23q28 0 47.5 19.5t19.5 48.5q0 28 -19.5 47t-47.5 19q-44 0 -62 -41q-12 -29 -41.5 -41t-59.5 0
q-29 13 -41.5 42.5t-0.5 58.5q28 60 82 98q55 38 123 38q45 0 87 -18q37 -16 69 -48q33 -33 47 -70zM302 71q0 29 -21 50.5t-51 21.5q-29 0 -49.5 -21.5t-20.5 -50.5t20.5 -50t49.5 -21q30 0 51 21t21 50z" />
    <glyph glyph-name="at" unicode="@" horiz-adv-x="752" 
d="M699 486q28 -63 28 -136q0 -87 -40 -164h-1q-18 -35 -55 -55q-39 -22 -85 -16q-49 6 -85 45q-14 15 -23 37q-39 -22 -82 -22q-70 0 -119.5 49.5t-49.5 119.5t49.5 119.5t119.5 49.5q42 0 78 -19q16 24 44 24q22 0 37 -15t15 -37v-215q2 -28 30 -33q24 -3 36 19
q27 53 27 113q0 101 -73 174q-72 72 -174 72t-174 -72t-72 -174q0 -103 72 -175t174 -72q29 0 56 6q22 5 40 -6t23 -32q5 -22 -6.5 -40t-32.5 -23q-39 -9 -80 -9q-72 0 -136 27q-65 28 -112 75q-48 50 -75 112q-28 67 -28 137q0 69 28 136q27 62 75 112q47 47 112 75
q64 27 136 27q71 0 137 -27q63 -27 111 -75q51 -53 75 -112zM401 299q19 18 19 45q0 28 -19 46q-19 19 -45 19q-27 0 -46 -19t-19 -46q0 -26 19 -45t46 -19q26 0 45 19z" />
    <glyph glyph-name="A" unicode="A" horiz-adv-x="666" 
d="M403 655l246 -550q13 -28 2 -57t-39 -41q-14 -7 -31 -7q-49 0 -68 44l-34 76h-291l-34 -76q-20 -44 -69 -44q-16 0 -30 7q-28 12 -39.5 41t1.5 57l247 550q19 45 69 45t70 -45zM420 252l-87 193l-86 -193h173z" />
    <glyph glyph-name="B" unicode="B" horiz-adv-x="514" 
d="M417 361q62 -62 62 -149q0 -89 -63 -150q-62 -62 -150 -62h-147q-31 1 -52.5 22.5t-21.5 51.5v551q0 30 21.5 52t52.5 23h1h126q89 0 150 -63q63 -61 63 -150q0 -71 -42 -126zM310 487q0 26 -18.5 45t-45.5 19h-52v-126h52q27 0 45.5 18t18.5 44zM194 149h72
q27 0 45.5 18.5t18.5 44.5t-18.5 44.5t-45.5 18.5h-72v-126z" />
    <glyph glyph-name="C" unicode="C" horiz-adv-x="636" 
d="M369 0q60 0 114 19q52 18 98 53q25 19 29 49.5t-15 55.5q-19 24 -49.5 28.5t-55.5 -14.5q-53 -41 -121 -41q-85 0 -141 58q-59 59 -59 141q0 83 59 142q58 58 141 58q68 0 121 -41q20 -16 46 -16q38 0 59 29q19 25 15 55.5t-28 49.5q-46 35 -99 53q-55 20 -114 20
q-69 0 -136 -28q-60 -24 -111 -75q-48 -48 -75 -111q-27 -65 -27 -136t27 -136q28 -64 75 -111q48 -48 111 -75q65 -27 136 -27z" />
    <glyph glyph-name="D" unicode="D" horiz-adv-x="660" 
d="M598 486q27 -64 27 -137q0 -71 -27 -136q-23 -57 -75 -113q-48 -47 -112 -74q-67 -28 -137 -28h-156q-31 2 -52 23.5t-21 52.5v551q0 31 22.5 53.5t53.5 22.5q8 0 12 -1h141q72 0 137 -27q62 -27 112 -75q51 -53 75 -112zM417 207q58 58 58 142t-58 142q-60 60 -143 60
h-78v-403h78q86 0 143 59z" />
    <glyph glyph-name="E" unicode="E" horiz-adv-x="476" 
d="M194 149h162q31 0 53 -21.5t22 -52.5t-22 -53t-53 -22h-236q-32 0 -53.5 22t-21.5 53v551q0 32 21.5 53.5t53.5 21.5h236q31 0 53 -22t22 -53t-22 -52.5t-53 -21.5h-162v-135h162q27 0 46.5 -19.5t19.5 -46.5q0 -28 -19.5 -47t-46.5 -19h-162v-136z" />
    <glyph glyph-name="F" unicode="F" horiz-adv-x="465" 
d="M194 416h162q27 0 46.5 -19.5t19.5 -46.5q0 -28 -19.5 -47t-46.5 -19h-162v-209q0 -31 -21.5 -53t-52.5 -22q-32 0 -53.5 22t-21.5 53v550q0 31 21.5 53t53.5 22h236q31 0 52.5 -22t21.5 -53t-21.5 -52.5t-52.5 -21.5h-162v-135z" />
    <glyph glyph-name="G" unicode="G" horiz-adv-x="734" 
d="M640 413q30 -2 50 -24.5t19 -53.5q-6 -140 -102 -236q-97 -99 -240 -99q-145 0 -244 104q-98 101 -98 246q0 69 28 136q27 63 75 111q48 49 111 75q63 28 136 28q56 0 115 -19q58 -22 99 -53q24 -20 28 -50.5t-15 -55.5q-21 -29 -59 -29q-26 0 -46 16q-53 41 -122 41
q-82 0 -141 -59q-59 -57 -59 -141t56 -143q55 -57 136 -57q39 0 75 15q35 14 59 40q32 32 47 76h-180q-27 0 -46.5 19.5t-19.5 47.5q0 27 19.5 46.5t46.5 19.5h265q5 0 7 -1z" />
    <glyph glyph-name="H" unicode="H" horiz-adv-x="593" 
d="M474 700q31 0 52.5 -22t21.5 -53v-550q0 -31 -21.5 -53t-52.5 -22t-52.5 22t-21.5 53v208h-206v-208q0 -31 -21.5 -53t-52.5 -22q-32 0 -53.5 22t-21.5 53v550q0 31 21.5 53t53.5 22q31 0 52.5 -22t21.5 -53v-210h206v210q0 31 21.5 53t52.5 22z" />
    <glyph glyph-name="I" unicode="I" horiz-adv-x="239" 
d="M120 0q31 0 52.5 22t21.5 52v551q0 31 -21.5 53t-52.5 22t-53 -22t-22 -53v-551q0 -30 22 -52t53 -22z" />
    <glyph glyph-name="J" unicode="J" horiz-adv-x="343" 
d="M298 201v-2v-1q0 -84 -57 -140q-58 -58 -140 -58q-31 0 -53.5 22t-22.5 53t22.5 53.5t53.5 22.5q20 0 34 13.5t14 33.5v1v2v424q0 31 22 53t53 22q30 0 52 -22t22 -53v-424z" />
    <glyph glyph-name="K" unicode="K" horiz-adv-x="546" 
d="M278 350l220 -220q22 -22 22 -53t-22 -54q-21 -21 -51 -21q-31 0 -53 21l-200 200v-149q0 -31 -21.5 -52.5t-52.5 -21.5t-53 21.5t-22 52.5v552q0 31 22 52.5t53 21.5t52.5 -21.5t21.5 -52.5v-148l189 189q23 22 53.5 22t51.5 -22q22 -23 22 -53.5t-22 -52.5z" />
    <glyph glyph-name="L" unicode="L" horiz-adv-x="466" 
d="M194 149h161q32 0 54 -21.5t22 -52.5t-22.5 -53t-53.5 -22h-236q-31 0 -52.5 22t-21.5 53v1v1v548q0 31 21.5 53t52.5 22t53 -22t22 -53v-476z" />
    <glyph glyph-name="M" unicode="M" horiz-adv-x="785" 
d="M665 700q31 0 53 -22t22 -53v-550q0 -31 -22 -53t-53 -22q-30 0 -52 22t-22 53v270l-140 -284q0 -1 -1 -1v-2l-1 -1q-1 0 -1 -3q-1 -1 -2 -1q0 -1 -1 -1l-1 -2v-1l-2 -2h-1l-1 -2l-2 -2l-1 -1l-2 -2q-1 0 -3 -2q0 -1 -2 -1v-1q-2 0 -2 -2h-1q-1 -1 -3 -1q0 -1 -1 -1
t-2 -1q-1 0 -2 -1h-1h-2v-1q-9 -4 -22 -4h-2h-2q-13 0 -22 4v1h-3q-1 1 -2 1l-6 3l-3 3q-1 0 -2 1h-1q0 1 -2 3q-1 0 -2 1q-1 0 -1 1q-1 1 -1 2h-1l-2 2l-1 2l-1 1v1l-1 1l-1 1q-1 0 -1 1v1l-2 2q0 1 -1 1q0 1 -1 3l-139 284v-270q0 -31 -22 -53t-53 -22t-52.5 22t-21.5 53
v550q0 31 21.5 53t52.5 22q11 0 21 -3q30 -6 44 -35l209 -423l208 423q14 29 44 35q9 3 20 3z" />
    <glyph glyph-name="N" unicode="N" horiz-adv-x="640" 
d="M521 700q31 0 52.5 -22t21.5 -53v-550q0 -31 -21.5 -53t-52.5 -22q-36 0 -60 30q-1 1 -1 3l-265 383v-341q0 -31 -22 -53t-53 -22t-53 22t-22 53v550q0 31 22 53t53 22q44 0 65 -38l261 -379v342q0 31 22 53t53 22z" />
    <glyph glyph-name="O" unicode="O" horiz-adv-x="739" 
d="M370 0q-69 0 -136 28q-62 25 -112 75q-48 48 -74 112q-28 63 -28 135q0 73 28 136q25 62 74 111q50 50 112 75q63 28 136 28q71 0 136 -28q62 -26 111 -75q48 -48 75 -111q27 -64 27 -136q0 -70 -27 -135q-28 -65 -75 -112q-49 -49 -111 -75q-68 -28 -136 -28zM370 550
q-81 0 -142 -59q-58 -60 -58 -141t58 -141q61 -59 142 -59q83 0 140 59q59 59 59 141t-59 141q-57 59 -140 59z" />
    <glyph glyph-name="P" unicode="P" horiz-adv-x="514" 
d="M467 568q17 -42 17 -83q0 -45 -17 -85t-46 -69q-30 -30 -69 -47q-42 -17 -85 -17h-73v-192q0 -31 -22 -53t-53 -22t-52.5 22t-21.5 53v551q0 31 21.5 52.5t52.5 21.5h148q47 0 85 -17t69 -46q29 -29 46 -69zM194 417h73q28 0 47.5 19.5t19.5 48.5q0 27 -19.5 46.5
t-47.5 19.5h-73v-134z" />
    <glyph glyph-name="Q" unicode="Q" horiz-adv-x="745" 
d="M648 139l27 -28q19 -19 19 -46t-19 -47q-21 -19 -47 -19q-25 0 -46 19l-32 32q-33 -18 -44 -22q-68 -28 -137 -28t-136 28q-61 26 -110 75q-49 47 -76 111t-27 136q0 71 27 137q29 65 76 111q50 50 110 74q63 28 136 28q72 0 137 -28q63 -26 111 -74q49 -50 75 -111
q28 -68 28 -137t-28 -136q-19 -43 -44 -75zM369 150q36 0 69 12l-22 22q-20 20 -20 47t20 46t47 19t47 -19l31 -31q29 50 29 104q0 84 -59 141q-57 59 -142 59q-82 0 -141 -59q-58 -58 -58 -141q0 -81 58 -142q60 -58 141 -58z" />
    <glyph glyph-name="R" unicode="R" horiz-adv-x="518" 
d="M342 280l123 -177q16 -22 10.5 -49t-27.5 -42q-16 -12 -37 -12q-36 0 -56 29l-162 236v-191q0 -30 -21.5 -52t-52.5 -22t-52.5 22t-21.5 52v552q0 30 21.5 51.5t51.5 22.5h148q40 0 84 -18q41 -17 69 -47q30 -27 47 -68q17 -46 17 -85q0 -38 -17 -84q-16 -38 -47 -68
q-26 -27 -69 -46zM332 482q0 28 -19 48t-47 20h-73v-135h73q28 0 47 19.5t19 47.5z" />
    <glyph glyph-name="S" unicode="S" horiz-adv-x="467" 
d="M213 -1q2 0 6.5 0.5t6.5 0.5q88 5 149 67q65 65 62 156q-2 78 -55 138q-32 36 -80 57q-9 4 -33 10.5t-39 11.5t-28 19t-12 35q0 26 22 43q17 13 41.5 14t42.5 -10q26 -16 56 -8.5t46 33.5q15 27 7.5 57t-34.5 46q-55 33 -132 31q-40 -3 -79 -21q-34 -17 -63 -45
q-29 -32 -43 -66q-15 -40 -15 -82q3 -78 66 -136q35 -34 78 -51q8 -4 36 -11.5t41 -16.5q31 -22 26 -60q-5 -48 -55.5 -59t-84.5 15q-26 17 -56 11.5t-47 -31.5q-18 -26 -12 -56t32 -47q67 -45 150 -45z" />
    <glyph glyph-name="T" unicode="T" horiz-adv-x="479" 
d="M89 700h300q31 0 53 -21.5t22 -52.5t-22 -53.5t-53 -22.5h-75v-476q0 -30 -22 -52t-53 -22t-52.5 22t-21.5 52v476h-76q-31 0 -52.5 22t-21.5 54q0 31 21.5 52.5t52.5 21.5z" />
    <glyph glyph-name="U" unicode="U" horiz-adv-x="553" 
d="M276 0q-46 0 -90 18q-42 18 -74 50q-31 33 -49 74q-18 42 -18 90v394q0 30 21.5 52t52.5 22t52.5 -22t21.5 -52v-394q0 -34 24.5 -58.5t58.5 -24.5t58.5 24.5t24.5 58.5v394q0 30 22 52t53 22t52.5 -22t21.5 -52v-394q0 -48 -18 -90q-19 -44 -50 -74q-29 -30 -73 -50
q-43 -18 -91 -18z" />
    <glyph glyph-name="V" unicode="V" horiz-adv-x="611" 
d="M554 700q29 -12 41 -40.5t1 -56.5l-220 -556q-9 -22 -28 -34.5t-42 -12.5h-1q-23 0 -42 12.5t-28 34.5l-220 556q-11 28 1 56.5t41 40.5t58 -0.5t40 -41.5l151 -380l151 380q11 29 39.5 41.5t57.5 0.5z" />
    <glyph glyph-name="W" unicode="W" horiz-adv-x="792" 
d="M727 700q30 -8 45 -35t7 -57l-156 -554q-7 -24 -27 -39t-45 -15q-9 0 -20 3q-46 13 -53 59l-82 310l-82 -310q-8 -46 -54 -59q-9 -3 -20 -3q-25 0 -45 15t-27 39l-155 554q-9 30 6.5 57t45.5 35q29 9 56 -6t36 -45l90 -322l84 318q6 22 24 36t40 14h1q22 0 40 -14t24 -36
l84 -318l91 322q8 30 35 45t57 6z" />
    <glyph glyph-name="X" unicode="X" horiz-adv-x="559" 
d="M370 353l166 -236q17 -26 11.5 -56t-30.5 -48q-17 -13 -42 -13q-40 0 -61 31l-134 191l-134 -191q-22 -31 -62 -31q-24 0 -41 13q-26 18 -31.5 48t12.5 56l165 236l-161 230q-18 26 -12.5 56t31.5 48q25 17 55.5 11.5t47.5 -31.5l130 -184l129 184q18 26 48.5 31.5
t54.5 -11.5q26 -18 31.5 -48.5t-12.5 -55.5z" />
    <glyph glyph-name="Y" unicode="Y" horiz-adv-x="524" 
d="M483 689q25 -17 30 -47.5t-12 -55.5l-164 -234v-277q0 -31 -22 -53t-52 -22q-31 0 -53 22t-22 53v277l-164 234q-18 25 -12.5 55.5t31.5 47.5q25 18 55.5 12.5t47.5 -30.5l117 -166l115 166q18 26 48.5 31t56.5 -13z" />
    <glyph glyph-name="Z" unicode="Z" horiz-adv-x="626" 
d="M263 149h242q30 0 52 -22t22 -53t-22 -52.5t-52 -21.5h-383h-1h-1q-23 0 -43 14q-25 17 -30 47.5t12 55.5l305 435h-244q-31 0 -53 21.5t-22 52.5t22 52.5t53 21.5h378h7q22 0 44 -14q25 -17 30.5 -47.5t-12.5 -56.5z" />
    <glyph glyph-name="backslash" unicode="\" horiz-adv-x="443" 
d="M332 0q13 0 24 4q25 10 36.5 35t1.5 51l-221 572q-11 26 -36 37t-50 1q-26 -10 -37 -35t-1 -50l222 -573q7 -19 24 -30.5t37 -11.5z" />
    <glyph glyph-name="underscore" unicode="_" horiz-adv-x="818" 
d="M100 -130h618q27 0 46 19t19 46t-19 46t-46 19h-618q-27 0 -46 -19t-19 -46t19 -46t46 -19z" />
    <glyph glyph-name="a" unicode="a" horiz-adv-x="545" 
d="M451 500q29 0 49 -20t20 -49v-361q0 -28 -20 -48.5t-49 -20.5q-37 0 -59 32q-58 -32 -122 -32q-104 0 -177 73.5t-73 176.5t73 176.5t177 73.5q65 0 123 -32q22 31 58 31zM336 185q27 29 27 66t-27 66q-27 27 -66 27t-66 -27t-27 -66t27 -66q29 -27 66 -27t66 27z" />
    <glyph glyph-name="b" unicode="b" horiz-adv-x="543" 
d="M274 500q103 0 176 -73t73 -177q0 -103 -73 -176t-176 -73q-64 0 -122 32q-19 -32 -58 -32q-29 0 -49 20t-20 49v178v2v3v109v216q0 32 23 55t55 23q33 0 56 -23t23 -55v-96q46 18 92 18zM340 185q27 27 27 65q0 39 -27 66q-28 28 -66 28t-66 -28q-27 -27 -27 -66
q0 -38 27 -65q28 -28 66 -28t66 28z" />
    <glyph glyph-name="c" unicode="c" horiz-adv-x="473" 
d="M270 0q88 0 152 51q26 20 30 52t-16 58q-19 26 -51.5 30.5t-58.5 -15.5q-23 -19 -56 -19q-39 0 -66 27t-27 66q0 38 27 65.5t66 27.5q33 0 56 -19q23 -17 48 -17q38 0 63 31q19 26 15 58t-30 52q-33 27 -70 38q-42 14 -82 14q-54 0 -97 -20q-48 -21 -80 -53
q-35 -36 -54 -79q-19 -51 -19 -98q0 -49 19 -98q20 -45 54 -79t80 -54q44 -19 97 -19z" />
    <glyph glyph-name="d" unicode="d" horiz-adv-x="546" 
d="M521 250v-2v-179q0 -29 -20.5 -49t-48.5 -20q-38 0 -58 32q-59 -32 -123 -32q-104 0 -177.5 73t-73.5 177t73.5 177.5t177.5 73.5q49 0 92 -17v96q0 32 23.5 55t56.5 23q32 0 55 -23t23 -55v-206v-122v-2zM337 185q27 25 27 65t-27 66q-28 28 -66 28q-39 0 -67 -28
q-27 -27 -27 -66q0 -38 27 -65q28 -28 67 -28q38 0 66 28z" />
    <glyph glyph-name="e" unicode="e" horiz-adv-x="524" 
d="M417 205h-4h-251q9 -22 24 -35q34 -32 85 -32q47 0 81 24q23 16 49.5 10.5t43.5 -28.5q15 -23 9.5 -51.5t-27.5 -44.5q-67 -48 -156 -48q-105 0 -178 70q-35 35 -52 78q-21 44 -21 96v4v4q0 49 20 97q19 44 51 79q35 35 77 54q42 18 95 18q94 0 157 -54q72 -60 83 -153
q4 -32 -15.5 -58t-51.5 -30q-1 0 -4.5 -0.5t-5.5 -0.5t-5 0.5t-4 0.5zM335 315h-1h23q-7 27 -33.5 44.5t-60.5 17.5q-35 0 -61.5 -17.5t-34.5 -44.5h30h138z" />
    <glyph glyph-name="f" unicode="f" horiz-adv-x="337" 
d="M183 411h59q29 0 49.5 -20t20.5 -49t-20.5 -49t-49.5 -20h-59v-194q0 -33 -23 -56t-56 -23q-32 0 -55.5 23t-23.5 56v359v7v5q0 85 61 148q62 60 147 60q33 0 56 -23t23 -56q0 -32 -23 -55.5t-56 -23.5q-21 0 -35.5 -14.5t-14.5 -35.5v-5v-7v-27z" />
    <glyph glyph-name="g" unicode="g" horiz-adv-x="543" 
d="M450 499q28 0 48 -20.5t20 -48.5v-361v-8q0 -106 -69 -175q-76 -74 -182 -74q-45 0 -90 17q-27 10 -38 36.5t0 53.5q11 26 37 37t53 1q17 -7 38 -7q50 0 84 34q17 19 24 40q-51 -24 -106 -24q-104 0 -176.5 73.5t-72.5 177.5q0 103 72.5 176t176.5 73q66 0 123 -33
q19 32 58 32zM335 184q27 29 27 67q0 37 -27 64q-28 28 -66 28q-40 0 -66 -28q-27 -25 -27 -64q0 -40 27 -67q26 -26 66 -26q38 0 66 26z" />
    <glyph glyph-name="h" unicode="h" 
d="M398 436q65 -62 65 -155v-202q0 -33 -23 -56t-56 -23t-55.5 23t-22.5 56v202q0 25 -18 43t-44 18t-44 -18t-18 -43v-202q0 -33 -23 -56t-55 -23q-33 0 -56 23t-23 56v502q0 32 23 55.5t56 23.5q32 0 55 -23.5t23 -55.5v-90q30 9 62 9q90 0 154 -64z" />
    <glyph glyph-name="i" unicode="i" horiz-adv-x="247" 
d="M196 602q0 29 -21 50t-51 21t-51.5 -21t-21.5 -50q0 -30 21.5 -51t51.5 -21t51 21t21 51zM124 0q32 0 55 23.5t23 55.5v342q0 32 -23 55.5t-55 23.5q-33 0 -56 -23.5t-23 -55.5v-342q0 -32 23 -55.5t56 -23.5z" />
    <glyph glyph-name="j" unicode="j" horiz-adv-x="264" 
d="M220 604q0 29 -21.5 50.5t-51.5 21.5q-31 0 -52 -21t-21 -51q0 -31 21 -52t52 -21q30 0 51.5 21t21.5 52zM224 71v-7v-6q0 -65 -32 -123q-35 -59 -87 -89q-19 -12 -41 -12q-42 0 -68 37q-16 27 -8 59.5t35 48.5q44 28 44 79v6v7v350q0 33 23 56t56 23q32 0 55 -23t23 -56
v-350z" />
    <glyph glyph-name="k" unicode="k" horiz-adv-x="431" 
d="M283 246l112 -116q22 -23 21 -55.5t-24 -54.5q-24 -22 -53 -22q-32 0 -58 24l-101 107v-51q0 -32 -22.5 -55t-55.5 -23q-32 0 -54.5 23t-22.5 55v499q0 32 22.5 55t54.5 23q33 0 55.5 -23t22.5 -55v-211l92 108q20 25 53 28t57 -18q24 -22 27 -53.5t-18 -56.5z" />
    <glyph glyph-name="l" unicode="l" horiz-adv-x="207" 
d="M103 0q33 0 56 23.5t23 55.5v500q0 32 -23 55.5t-56 23.5q-32 0 -55 -23.5t-23 -55.5v-500q0 -32 23 -55.5t55 -23.5z" />
    <glyph glyph-name="m" unicode="m" horiz-adv-x="768" 
d="M679 436q64 -62 64 -155v-202q0 -33 -23 -56t-55 -23q-33 0 -56 23t-23 56v202q0 25 -18 43.5t-44 18.5q-25 0 -43 -18t-18 -44v-202q0 -33 -23 -56t-56 -23q-32 0 -55.5 23t-23.5 56v202q0 26 -18 44t-43 18q-26 0 -44 -18.5t-18 -43.5v-202q0 -33 -23 -56t-56 -23
q-32 0 -55 23t-23 56v34v317q0 29 20 49.5t49 20.5q31 0 51 -23q48 23 99 23q80 0 140 -51q60 51 140 51q91 0 155 -64z" />
    <glyph glyph-name="n" unicode="n" 
d="M399 436q64 -64 64 -155v-202q0 -32 -23 -55.5t-56 -23.5q-32 0 -55 23.5t-23 55.5v202q0 26 -18 44t-44 18t-44 -18t-18 -44v-202q0 -32 -23 -55.5t-56 -23.5q-32 0 -55 23.5t-23 55.5v352q0 29 20.5 49t48.5 20q31 0 51 -22q48 23 99 23q90 0 155 -65z" />
    <glyph glyph-name="o" unicode="o" horiz-adv-x="530" 
d="M265 500q103 0 176.5 -73t73.5 -177t-73.5 -177t-176.5 -73t-176.5 73t-73.5 177t73.5 177t176.5 73zM265 344q-38 0 -66 -28q-27 -26 -27 -66q0 -39 27 -66q29 -27 66 -27t66 27q27 29 27 66q0 39 -27 66q-28 28 -66 28z" />
    <glyph glyph-name="p" unicode="p" horiz-adv-x="547" 
d="M276 502q104 0 177.5 -73.5t73.5 -177.5t-73.5 -177.5t-177.5 -73.5q-50 0 -92 18v-97q0 -32 -23.5 -55.5t-55.5 -23.5q-33 0 -56.5 23.5t-23.5 55.5v198v8v124v182q0 29 20 49t49 20q40 0 59 -32q59 32 123 32zM342 185q28 26 28 66q0 39 -28 67q-29 27 -66 27t-66 -27
q-28 -28 -28 -67q0 -40 28 -66q27 -27 66 -27t66 27z" />
    <glyph glyph-name="q" unicode="q" horiz-adv-x="550" 
d="M525 126v-8v-197q0 -32 -23.5 -55.5t-55.5 -23.5q-33 0 -56 23.5t-23 55.5v97q-43 -18 -91 -18q-104 0 -177.5 73t-73.5 177t73.5 177t177.5 73q63 0 121 -32q22 32 59 32q28 0 48.5 -20t20.5 -49v-181v-124zM276 157q38 0 65 27q28 26 28 66t-28 66q-27 27 -65 27
q-40 0 -67 -27t-27 -66t27 -66t67 -27z" />
    <glyph glyph-name="r" unicode="r" horiz-adv-x="344" 
d="M254 499q32 -2 54 -25.5t21 -56.5q-1 -31 -24 -53t-55 -22h-3h-4q-25 0 -43 -18t-18 -43v-202q0 -33 -23 -56t-56 -23q-32 0 -55 23t-23 56v351q0 28 20.5 48.5t48.5 20.5q32 0 51 -22q46 23 98 23q8 0 11 -1z" />
    <glyph glyph-name="s" unicode="s" horiz-adv-x="349" 
d="M168 0h9q67 6 111 52q48 49 46 118q-3 61 -43 104q-7 7 -19 17q-22 17 -49 27q-3 1 -14.5 3.5t-17.5 4.5q-26 7 -22 25q3 12 16 14t22 -4q25 -14 52.5 -7t41.5 32q15 25 7.5 52.5t-32.5 41.5q-43 25 -100 22q-63 -5 -106 -51q-45 -48 -42 -112q2 -58 50 -103
q19 -18 46 -32q17 -8 34 -12q2 -1 6.5 -2t7 -1.5t6.5 -2t6 -3t4.5 -3.5t4 -5t2.5 -7q2 -11 -6 -19q-14 -17 -44 -8q-8 2 -22 10q-23 11 -48 3.5t-39 -28.5q-16 -24 -10 -51.5t30 -43.5q51 -33 112 -31z" />
    <glyph glyph-name="t" unicode="t" horiz-adv-x="336" 
d="M233 157q32 0 55 -23t23 -55q0 -33 -23 -56t-55 -23q-85 0 -147 60q-61 63 -61 148v6v6v361q0 32 23 55t56 23q32 0 55 -23t23 -55v-81h60q29 0 49 -20.5t20 -49.5q0 -28 -20.5 -48.5t-48.5 -20.5h-60v-141v-6v-6q0 -21 15 -36t36 -15z" />
    <glyph glyph-name="u" unicode="u" 
d="M244 0q90 0 154 64q65 65 65 155v202q0 33 -23.5 56t-55.5 23t-55.5 -23t-23.5 -56v-202q0 -26 -18 -44t-43 -18q-26 0 -44 18.5t-18 43.5v202q0 33 -23 56t-56 23q-32 0 -55 -23t-23 -56v-202q0 -89 64 -155q64 -64 155 -64z" />
    <glyph glyph-name="v" unicode="v" horiz-adv-x="468" 
d="M404 494q30 -12 42.5 -42t0.5 -61l-140 -342q-1 -1 -1 -3h-1q-1 -1 -1 -2v-1l-2 -2v-2q-1 -1 -1 -2l-1 -1l-1 -1l-1 -1v-1l-1 -1v-1q-1 0 -1 -1q-1 0 -1 -1l-1 -1h-1l-1 -1v-1l-1 -1l-1 -1l-4 -4q-7 -6 -16 -11l-1 -1h-2l-2 -2h-1l-2 -1l-1 -1h-2q-4 0 -5 -1
q-8 -2 -11 -2q-3 -1 -6 -1h-1h-3h-2q-9 0 -17 3q-2 1 -6 1h-1l-1 1q-1 1 -3 1q0 1 -1 1t-1 1h-1l-2 1h-1q-6 3 -16 11l-2 2q0 1 -2 3q-2 0 -2 1v1l-1 1l-1 1l-1 1l-1 1l-1 1v2l-1 1l-1 1l-1 1q0 1 -0.5 1t-0.5 1l-2 2v2v1l-2 2v1q-1 1 -1 2l-140 342q-13 31 -0.5 61t43.5 42
q30 13 59.5 0t42.5 -43l67 -165l69 165q12 30 42 43t60 0z" />
    <glyph glyph-name="w" unicode="w" horiz-adv-x="760" 
d="M696 494q30 -12 43 -42t0 -60l-140 -342q-19 -47 -69 -49q-3 -1 -9 -1q-47 0 -65 43v1q-1 2 -2.5 6t-2.5 6l-71 174l-71 -174q-1 -2 -2.5 -6t-2.5 -6v-1q-18 -43 -65 -43q-6 0 -9 1q-50 2 -69 49l-140 342q-13 30 0 60t43 42q30 13 60 0.5t42 -43.5l78 -188l71 175
q18 43 65 43t65 -43l71 -175l78 188q12 31 42 43.5t60 -0.5z" />
    <glyph glyph-name="x" unicode="x" horiz-adv-x="474" 
d="M340 250l101 -120q21 -25 18 -57.5t-28 -53.5q-22 -19 -51 -19q-38 0 -61 29l-82 97l-82 -97q-22 -29 -61 -29q-28 0 -50 19q-25 21 -28 53.5t18 57.5l100 120l-100 120q-21 25 -18 57.5t28 53.5q25 22 57.5 19t53.5 -29l82 -97l81 97q22 26 54.5 29t58.5 -19
q25 -21 28 -53.5t-18 -57.5z" />
    <glyph glyph-name="y" unicode="y" horiz-adv-x="490" 
d="M424 497q31 -13 44 -44t1 -62l-73 -177l-3 -9l-105 -253v-1q-31 -71 -95 -112q-62 -39 -133 -39h-5q-29 1 -50 22.5t-20 50.5q1 30 22.5 50.5t50.5 19.5q32 0 59 17q27 18 39 47l15 37l-142 347q-13 31 0 62t44 44t62 0t44 -44l69 -170l71 170q12 31 43 44t62 0z" />
    <glyph glyph-name="z" unicode="z" horiz-adv-x="494" 
d="M273 158h117q32 0 55.5 -23t23.5 -56t-23.5 -56t-55.5 -23h-286q-28 0 -50.5 18.5t-27.5 45.5q-7 38 17 67l178 211h-117q-33 0 -56 23.5t-23 56.5q0 32 23 55.5t56 23.5h276q2 0 6 -0.5t5 -0.5q28 0 49 -18q25 -22 28 -54.5t-18 -57.5z" />
  </font>
</defs>
</svg>
